#!OML:ASF H:\BreakDance\Project 1\Capture day 1\Session 1\Male.ASF
:FULLY-SPECIFIED
:DEGREES
1118
root -14.4558 15.781 1.24954 342.606 -22.0172 -11.4402
lowerback -12.3091 5.73266 -10.2339
upperback -0.769216 9.30383 -6.94336
thorax 5.62137 4.31249 -0.160917
lowerneck -4.13528 0.766062 0.926885
upperneck 14.4524 -0.524569 10.6655
head 5.04288 0.447912 3.13973
rclavicle -2.70347e-014 -6.36111e-015
rhumerus 10.9799 13.9994 -50.8422
rradius 70.5896
rwrist 0.41267
rhand -40.875 -26.1388
rfingers 7.12502
rthumb -13.8111 -55.6604
lclavicle -2.70347e-014 -6.36111e-015
lhumerus -30.2646 -27.8377 36.0269
lradius 87.9964
lwrist -1.30559
lhand -42.0296 -32.6706
lfingers 7.12502
lthumb -14.9236 -3.2282
rfemur -19.2651 -4.72786 9.11907
rtibia 32.9072
rfoot -28.016 -27.3889
rtoes -4.0612
lfemur 7.18808 2.74923 -13.083
ltibia 43.1398
lfoot -39.6057 21.2594
ltoes -10.49
1119
root -14.457 15.7716 1.2344 342.646 -23.2551 -11.0534
lowerback -12.3707 6.0125 -9.95862
upperback -0.754854 9.65323 -7.07164
thorax 5.71831 4.48536 -0.38043
lowerneck -3.93822 0.612968 1.17302
upperneck 14.3815 -0.803835 11.0663
head 5.00439 0.337404 3.20727
rclavicle -7.4743e-014 3.18055e-014
rhumerus 11.3751 13.0574 -51.635
rradius 69.6963
rwrist 1.08981
rhand -40.5168 -26.2368
rfingers 7.12502
rthumb -13.4659 -55.7815
lclavicle -7.4743e-014 3.18055e-014
lhumerus -30.044 -28.0935 35.9989
lradius 88.7448
lwrist -1.42781
lhand -42.4057 -33.1594
lfingers 7.12502
lthumb -15.286 -3.74424
rfemur -19.8266 0.774216 9.00174
rtibia 32.71
rfoot -32.0641 -30.5177
rtoes 3.30972
lfemur 7.21455 2.70669 -13.7318
ltibia 43.1315
lfoot -40.0527 22.2567
ltoes -9.58882
1120
root -14.4589 15.7711 1.22403 342.69 -24.196 -10.4371
lowerback -12.6674 6.13523 -10.0023
upperback -0.716049 9.87975 -7.27521
thorax 5.94566 4.58108 -0.500774
lowerneck -3.77339 0.513735 1.26356
upperneck 14.4195 -1.01621 11.5406
head 5.00147 0.260727 3.33005
rclavicle -2.70347e-014 -6.36111e-015
rhumerus 11.819 12.3693 -52.4661
rradius 68.9473
rwrist 1.65138
rhand -40.2524 -26.3544
rfingers 7.12502
rthumb -13.2111 -55.9158
lclavicle -2.70347e-014 -6.36111e-015
lhumerus -29.6748 -28.343 35.8413
lradius 89.326
lwrist -1.66018
lhand -42.9604 -33.4531
lfingers 7.12502
lthumb -15.8202 -4.07952
rfemur -20.5971 4.51562 8.63742
rtibia 32.8884
rfoot -35.2526 -32.7231
rtoes 7.3491
lfemur 7.15017 2.72762 -14.5512
ltibia 43.0023
lfoot -40.3379 22.991
ltoes -8.74926
1121
root -14.4598 15.7827 1.21755 342.78 -24.8642 -9.69432
lowerback -13.1628 6.0897 -10.2912
upperback -0.647693 9.95443 -7.48243
thorax 6.2857 4.58724 -0.495358
lowerneck -3.65814 0.482258 1.14948
upperneck 14.5345 -1.12611 12.005
head 5.02468 0.227617 3.4914
rclavicle -6.36111e-015 -3.81667e-014
rhumerus 12.3285 11.9931 -53.2311
rradius 68.3835
rwrist 1.91156
rhand -40.1241 -26.4047
rfingers 7.12502
rthumb -13.0874 -55.9741
lclavicle -6.36111e-015 -3.81667e-014
lhumerus -29.2373 -28.4626 35.7137
lradius 89.6843
lwrist -2.0598
lhand -43.5492 -33.6479
lfingers 7.12502
lthumb -16.3872 -4.32011
rfemur -21.494 5.61715 8.24472
rtibia 33.254
rfoot -36.4756 -33.6336
rtoes 7.83185
lfemur 6.99519 2.88869 -15.3824
ltibia 42.7666
lfoot -40.4615 23.3107
ltoes -7.88963
1122
root -14.4588 15.8065 1.21264 343.002 -25.3456 -9.10388
lowerback -13.7419 5.91799 -10.5817
upperback -0.562614 9.87935 -7.60077
thorax 6.68274 4.51556 -0.410265
lowerneck -3.5757 0.501276 0.87924
upperneck 14.6751 -1.14016 12.3472
head 5.05462 0.228082 3.64646
rclavicle -5.40694e-014 1.59028e-014
rhumerus 12.8425 11.912 -53.8411
rradius 68.054
rwrist 1.76784
rhand -40.119 -26.3917
rfingers 7.12502
rthumb -13.0824 -55.9614
lclavicle -5.40694e-014 1.59028e-014
lhumerus -28.7215 -28.4553 35.67
lradius 89.8361
lwrist -2.52727
lhand -44.0003 -33.8296
lfingers 7.12502
lthumb -16.8214 -4.53824
rfemur -22.4042 4.12674 8.18469
rtibia 33.6135
rfoot -35.0898 -33.6321
rtoes 4.01526
lfemur 6.73685 3.24967 -15.898
ltibia 42.4893
lfoot -40.354 23.2789
ltoes -7.46864
1123
root -14.4537 15.8352 1.2045 343.411 -25.699 -8.82162
lowerback -14.2933 5.66466 -10.7115
upperback -0.462789 9.66842 -7.58721
thorax 7.09091 4.38212 -0.297299
lowerneck -3.5295 0.559137 0.502182
upperneck 14.7675 -1.05979 12.4968
head 5.06833 0.256737 3.76296
rclavicle -2.8625e-014 -2.22639e-014
rhumerus 13.3221 12.0664 -54.2231
rradius 68.0117
rwrist 1.25467
rhand -40.1531 -26.392
rfingers 7.12502
rthumb -13.1154 -55.9596
lclavicle -2.8625e-014 -2.22639e-014
lhumerus -28.1365 -28.258 35.8508
lradius 89.7986
lwrist -3.05248
lhand -44.1769 -34.0609
lfingers 7.12502
lthumb -16.9915 -4.78406
rfemur -23.1759 1.17599 8.57366
rtibia 33.8395
rfoot -32.973 -32.2143
rtoes 0.174576
lfemur 6.3295 3.80737 -15.9487
ltibia 42.2691
lfoot -40.0238 22.9476
ltoes -7.62212
1124
root -14.442 15.8663 1.19092 344 -25.976 -8.9828
lowerback -14.6173 5.46717 -10.4268
upperback -0.396209 9.42523 -7.52642
thorax 7.39418 4.25796 -0.385128
lowerneck -3.48754 0.564202 0.278185
upperneck 14.8338 -1.0309 12.4183
head 5.07794 0.253595 3.77808
rclavicle -3.65764e-014 -6.67916e-014
rhumerus 13.4972 12.2233 -54.4835
rradius 68.2999
rwrist 0.512346
rhand -40.185 -26.4179
rfingers 7.12502
rthumb -13.1461 -55.9835
lclavicle -3.65764e-014 -6.67916e-014
lhumerus -27.2595 -28.0819 36.1133
lradius 89.6113
lwrist -3.56021
lhand -44.01 -34.2832
lfingers 7.12502
lthumb -16.8308 -4.99267
rfemur -23.8089 -2.15573 9.44139
rtibia 33.8696
rfoot -30.3125 -30.5559
rtoes -4.82376
lfemur 5.82532 4.47848 -15.4523
ltibia 42.1614
lfoot -39.5518 22.3927
ltoes -8.2164
1125
root -14.4241 15.8969 1.16837 344.684 -26.1632 -9.45606
lowerback -14.6447 5.31991 -9.86074
upperback -0.334635 9.15361 -7.42934
thorax 7.56082 4.14204 -0.621173
lowerneck -3.48762 0.536552 0.165269
upperneck 14.8314 -1.0262 12.1682
head 5.07546 0.233053 3.71758
rclavicle -9.54166e-015 -9.54166e-015
rhumerus 13.4529 12.3483 -54.5903
rradius 68.9026
rwrist -0.231469
rhand -40.087 -26.5824
rfingers 7.12502
rthumb -13.0516 -56.154
lclavicle -9.54166e-015 -9.54166e-015
lhumerus -26.1911 -27.8589 36.5435
lradius 89.359
lwrist -4.07499
lhand -43.5507 -34.3463
lfingers 7.12502
lthumb -16.3886 -5.01863
rfemur -24.2769 -4.62811 10.4826
rtibia 33.7348
rfoot -28.3582 -28.9925
rtoes -8.32162
lfemur 5.2375 5.18273 -14.5994
ltibia 42.1773
lfoot -39.0078 21.6991
ltoes -9.09195
1126
root -14.4022 15.9272 1.13598 345.356 -26.229 -10.0101
lowerback -14.3683 5.21751 -9.22246
upperback -0.280426 8.88624 -7.36455
thorax 7.55992 4.04255 -0.961904
lowerneck -3.48669 0.47031 0.176887
upperneck 14.732 -1.06065 11.8166
head 5.0458 0.190302 3.60017
rclavicle -4.6118e-014 5.725e-014
rhumerus 13.184 12.3913 -54.5842
rradius 69.758
rwrist -0.760861
rhand -39.9083 -26.8466
rfingers 7.12502
rthumb -12.8794 -56.4292
lclavicle -4.6118e-014 5.725e-014
lhumerus -24.9245 -27.6616 37.0883
lradius 89.0935
lwrist -4.53277
lhand -42.9059 -34.0864
lfingers 7.12502
lthumb -15.7677 -4.70864
rfemur -24.6248 -5.94362 11.4049
rtibia 33.4988
rfoot -27.1972 -27.8644
rtoes -10.1576
lfemur 4.58925 5.74804 -13.7333
ltibia 42.267
lfoot -38.4862 21.0399
ltoes -10.0781
1127
root -14.3793 15.9576 1.09377 345.928 -26.1349 -10.4605
lowerback -13.8188 5.10583 -8.73639
upperback -0.21859 8.59827 -7.33785
thorax 7.39298 3.93545 -1.29281
lowerneck -3.4829 0.393722 0.259389
upperneck 14.5437 -1.09696 11.3989
head 4.98833 0.143468 3.44867
rclavicle -5.40694e-014 -1.59028e-014
rhumerus 12.7875 12.4094 -54.4407
rradius 70.7934
rwrist -0.95574
rhand -39.7129 -27.1858
rfingers 7.12502
rthumb -12.691 -56.7802
lclavicle -5.40694e-014 -1.59028e-014
lhumerus -23.5672 -27.4659 37.7497
lradius 88.8591
lwrist -4.92162
lhand -42.1845 -33.4752
lfingers 7.12502
lthumb -15.0729 -4.04396
rfemur -24.9029 -6.12528 12.0046
rtibia 33.2489
rfoot -26.7682 -27.3236
rtoes -10.4841
lfemur 3.91069 6.04927 -13.1045
ltibia 42.3759
lfoot -38.0376 20.5198
ltoes -11.0548
1128
root -14.3593 15.9882 1.04259 346.363 -25.8582 -10.7247
lowerback -13.0424 4.94248 -8.54825
upperback -0.145922 8.26073 -7.33329
thorax 7.06791 3.79819 -1.51577
lowerneck -3.42384 0.325955 0.368872
upperneck 14.2424 -1.10573 10.9459
head 4.8847 0.104227 3.28166
rclavicle -6.36111e-015 1.90833e-014
rhumerus 12.3495 12.4545 -54.16
rradius 71.908
rwrist -0.765832
rhand -39.5751 -27.4637
rfingers 7.12502
rthumb -12.5581 -57.0663
lclavicle -6.36111e-015 1.90833e-014
lhumerus -22.1672 -27.283 38.4489
lradius 88.6731
lwrist -5.2179
lhand -41.4636 -32.5976
lfingers 7.12502
lthumb -14.3784 -3.11562
rfemur -25.1456 -5.35032 12.2121
rtibia 33.0366
rfoot -26.9613 -27.3803
rtoes -9.55793
lfemur 3.21693 6.04928 -12.8014
ltibia 42.4719
lfoot -37.6806 20.1613
ltoes -11.9247
1129
root -14.3427 16.0178 0.984757 346.702 -25.4169 -10.8652
lowerback -12.0841 4.73293 -8.58565
upperback -0.0646907 7.87082 -7.3453
thorax 6.62016 3.63039 -1.65468
lowerneck -3.3051 0.257634 0.493601
upperneck 13.8259 -1.10553 10.4979
head 4.73508 0.0654011 3.11337
rclavicle -6.04305e-014 1.20861e-013
rhumerus 11.9092 12.509 -53.7933
rradius 73.0212
rwrist -0.23406
rhand -39.5908 -27.6171
rfingers 7.12502
rthumb -12.5733 -57.2188
lclavicle -6.04305e-014 1.20861e-013
lhumerus -20.6552 -27.146 39.0473
lradius 88.5087
lwrist -5.40212
lhand -40.7618 -31.6016
lfingers 7.12502
lthumb -13.7021 -2.07265
rfemur -25.3841 -3.94877 12.1271
rtibia 32.8848
rfoot -27.6745 -27.804
rtoes -7.58507
lfemur 2.51198 5.80387 -12.7271
ltibia 42.5472
lfoot -37.4101 19.91
ltoes -12.6452
